<?xml version="1.0" encoding="utf-8"?>
<!-- Generator: Adobe Illustrator 29.8.3, SVG Export Plug-In . SVG Version: 9.03 Build 0)  -->
<svg version="1.1" xmlns="http://www.w3.org/2000/svg" xmlns:xlink="http://www.w3.org/1999/xlink" x="0px" y="0px"
	 viewBox="0 0 1024 1024" style="enable-background:new 0 0 1024 1024;" xml:space="preserve">
<g>
</g>
<g id="ロースタッガード">
	<path style="opacity:0.5;fill:none;stroke:#FFFFFF;stroke-width:5;stroke-miterlimit:10;" d="M149,225h-360
		c-24.8528137,0-45-20.1471863-45-45v-360c0-24.8528137,20.1471863-45,45-45h360c24.8528137,0,45,20.1471863,45,45v360
		C194,204.8528137,173.8528137,225,149,225z"/>
	<path style="opacity:0.5;fill:none;stroke:#FFFFFF;stroke-width:5;stroke-miterlimit:10;" d="M661,225H301
		c-24.8528137,0-45-20.1471863-45-45v-360c0-24.8528137,20.1471863-45,45-45h360c24.8528442,0,45,20.1471863,45,45v360
		C706,204.8528137,685.8528442,225,661,225z"/>
	<path style="opacity:0.5;fill:none;stroke:#FFFFFF;stroke-width:5;stroke-miterlimit:10;" d="M1173,225H813
		c-24.8528442,0-45-20.1471863-45-45v-360c0-24.8528137,20.1471558-45,45-45h360c24.8527832,0,45,20.1471863,45,45v360
		C1218,204.8528137,1197.8527832,225,1173,225z"/>
	<path style="opacity:0.5;fill:none;stroke:#FFFFFF;stroke-width:5;stroke-miterlimit:10;" d="M277,737H-83
		c-24.8528137,0-45-20.1471558-45-45V332c0-24.8528137,20.1471863-45,45-45h360c24.8528137,0,45,20.1471863,45,45v360
		C322,716.8528442,301.8528137,737,277,737z"/>
	<path style="opacity:0.5;fill:none;stroke:#FFFFFF;stroke-width:5;stroke-miterlimit:10;" d="M789,737H429
		c-24.8528137,0-45-20.1471558-45-45V332c0-24.8528137,20.1471863-45,45-45h360c24.8528442,0,45,20.1471863,45,45v360
		C834,716.8528442,813.8528442,737,789,737z"/>
	<path style="opacity:0.5;fill:none;stroke:#FFFFFF;stroke-width:5;stroke-miterlimit:10;" d="M1301,737H941
		c-24.8528442,0-45-20.1471558-45-45V332c0-24.8528137,20.1471558-45,45-45h360c24.8527832,0,45,20.1471863,45,45v360
		C1346,716.8528442,1325.8527832,737,1301,737z"/>
	<path style="opacity:0.5;fill:none;stroke:#FFFFFF;stroke-width:5;stroke-miterlimit:10;" d="M21,1249h-360
		c-24.8528137,0-45-20.1472168-45-45V844c0-24.8528442,20.1471863-45,45-45H21c24.8528137,0,45,20.1471558,45,45v360
		C66,1228.8527832,45.8528137,1249,21,1249z"/>
	<path style="opacity:0.5;fill:none;stroke:#FFFFFF;stroke-width:5;stroke-miterlimit:10;" d="M533,1249H173
		c-24.8528137,0-45-20.1472168-45-45V844c0-24.8528442,20.1471863-45,45-45h360c24.8528442,0,45,20.1471558,45,45v360
		C578,1228.8527832,557.8528442,1249,533,1249z"/>
	<path style="opacity:0.5;fill:none;stroke:#FFFFFF;stroke-width:5;stroke-miterlimit:10;" d="M1045,1249H685
		c-24.8528442,0-45-20.1472168-45-45V844c0-24.8528442,20.1471558-45,45-45h360c24.8527832,0,45,20.1471558,45,45v360
		C1090,1228.8527832,1069.8527832,1249,1045,1249z"/>
</g>
</svg>
